<svg width="494" height="512" viewBox="0 0 494 512" fill="none" xmlns="http://www.w3.org/2000/svg">
<g clip-path="url(#clip0_30_2)">
<path d="M414.293 511.235L459.279 512.001H459.419C464.088 511.991 467.883 508.235 467.935 503.567V278.134L480.744 289.307C482.259 290.631 484.204 291.361 486.216 291.361C487.347 291.361 488.461 291.103 489.479 290.605C490.917 289.924 492.126 288.839 492.959 287.483C493.791 286.127 494.211 284.558 494.167 282.967V215.281C494.206 214.093 493.986 212.911 493.522 211.817C493.059 210.722 492.363 209.742 491.483 208.943L253.299 2.05762C251.784 0.732497 249.84 0.00145429 247.827 -8.91039e-05C245.814 -0.0016325 243.868 0.726428 242.351 2.04923L3.67926 208.936C2.80058 209.736 2.10674 210.718 1.64596 211.814C1.18517 212.91 0.96849 214.093 1.01097 215.281V282.967C0.961112 284.557 1.37827 286.127 2.21089 287.483C3.04352 288.838 4.25511 289.92 5.69595 290.595C7.13608 291.271 8.74288 291.51 10.3173 291.282C11.8918 291.054 13.3648 290.369 14.5539 289.312L23.0456 281.836V500.189C23.0542 502.383 23.9179 504.488 25.4532 506.055C26.9884 507.622 29.0743 508.53 31.2677 508.584L80.5098 509.822C81.6317 509.849 82.7477 509.653 83.7927 509.244C84.8376 508.835 85.7905 508.222 86.5956 507.44C87.3998 506.658 88.0399 505.723 88.4784 504.691C88.917 503.659 89.1451 502.549 89.1495 501.428V286.094L406.029 286.954V502.82C406.03 505.025 406.896 507.142 408.441 508.715C409.986 510.289 412.088 511.193 414.293 511.235ZM17.7982 219.117L247.892 19.5017L477.378 219.108V264.563L253.196 69.7407C251.731 68.4188 249.827 67.6864 247.854 67.6849C245.88 67.6833 243.975 68.4127 242.507 69.7323L17.7993 264.596L17.7982 219.117ZM80.7585 269.621H80.7375C79.6492 269.589 78.5654 269.774 77.5494 270.165C76.5333 270.557 75.6054 271.146 74.8197 271.9C74.0417 272.646 73.4227 273.542 73 274.534C72.5774 275.526 72.3597 276.593 72.3602 277.671V492.812L39.8329 491.997V267.297L247.913 87.1879L451.147 263.559V495.033L422.817 494.566V278.585C422.815 277.494 422.596 276.414 422.173 275.408C421.75 274.401 421.132 273.489 420.354 272.724C419.577 271.959 418.655 271.356 417.642 270.95C416.63 270.544 415.547 270.343 414.456 270.359L80.7585 269.621Z" fill="black"/>
<path d="M372.452 503.567V416.306C372.436 411.846 371.523 407.435 369.77 403.334C368.016 399.234 365.456 395.527 362.243 392.435L357.452 387.34L339.056 337.499C337.291 332.717 334.116 328.583 329.951 325.643C325.786 322.704 320.828 321.097 315.731 321.035H182.74C177.645 321.097 172.689 322.703 168.526 325.641C164.363 328.58 161.19 332.712 159.425 337.492L141.318 386.475L134.297 393.025C130.671 396.139 127.76 399.999 125.763 404.341C123.766 408.684 122.73 413.406 122.726 418.186V503.567C122.744 505.806 123.644 507.948 125.231 509.527C126.818 511.106 128.964 511.996 131.203 512.002H177.866C182.502 512.002 186.733 508.203 186.733 503.566V483.672H308.448V503.566C308.448 508.203 312.673 512.002 317.309 512.002H363.976C366.215 511.996 368.362 511.107 369.949 509.527C371.536 507.947 372.435 505.805 372.452 503.566V503.567ZM175.169 343.304C175.734 341.735 176.759 340.372 178.111 339.395C179.462 338.417 181.077 337.87 182.744 337.824H315.731C317.397 337.87 319.011 338.418 320.361 339.396C321.712 340.373 322.736 341.735 323.301 343.304L337.912 382.942H160.559L175.169 343.304ZM139.514 418.187C139.52 415.817 140.042 413.477 141.043 411.33C142.045 409.182 143.503 407.278 145.315 405.751C145.412 405.669 145.524 405.562 145.622 405.473L151.798 399.73H346.078L350.103 404.054C350.221 404.181 350.386 404.313 350.512 404.432C352.129 405.96 353.419 407.8 354.305 409.841C355.19 411.882 355.653 414.081 355.664 416.306V459.186C355.645 460.231 355.417 461.261 354.995 462.217C354.572 463.173 353.963 464.034 353.203 464.751C352.443 465.468 351.547 466.026 350.568 466.392C349.59 466.759 348.548 466.926 347.504 466.884H147.67C146.626 466.925 145.584 466.757 144.605 466.39C143.627 466.023 142.731 465.464 141.972 464.746C141.212 464.028 140.603 463.166 140.181 462.21C139.759 461.254 139.533 460.223 139.514 459.178V418.187ZM169.943 495.214H139.514V482.688C141.613 483.561 144.847 483.672 147.671 483.672H169.943V495.214ZM325.235 495.214V483.672H347.508C350.331 483.672 353.565 483.565 355.664 482.688V495.214H325.235Z" fill="black"/>
<path d="M202.471 422.813C202.471 418.175 198.712 414.419 194.076 414.419H155.253C150.618 414.419 146.859 418.175 146.859 422.813V450.094C146.859 452.32 147.744 454.456 149.318 456.03C150.892 457.604 153.027 458.488 155.253 458.488H194.076C196.303 458.488 198.438 457.604 200.012 456.03C201.586 454.456 202.471 452.32 202.471 450.094V422.813ZM163.648 431.207H186.731V441.7H163.648V431.207ZM347.27 422.813C347.27 418.175 343.511 414.419 338.875 414.419H300.052C295.417 414.419 291.658 418.175 291.658 422.813V450.094C291.658 452.32 292.543 454.456 294.117 456.03C295.691 457.604 297.826 458.488 300.052 458.488H338.875C341.102 458.488 343.237 457.604 344.811 456.03C346.385 454.456 347.27 452.32 347.27 450.094V422.813ZM308.447 431.207H331.531V441.7H308.447V431.207ZM222.473 443.799H272.706C274.933 443.799 277.068 442.914 278.642 441.34C280.216 439.766 281.101 437.631 281.101 435.404C281.101 433.178 280.216 431.043 278.642 429.469C277.068 427.895 274.933 427.01 272.706 427.01H222.473C220.246 427.01 218.111 427.895 216.537 429.469C214.963 431.043 214.079 433.178 214.079 435.404C214.079 437.631 214.963 439.766 216.537 441.34C218.111 442.914 220.246 443.799 222.473 443.799Z" fill="black"/>
</g>
<defs>
<clipPath id="clip0_30_2">
<rect width="494" height="512" fill="white"/>
</clipPath>
</defs>
</svg>
