<svg width="512" height="512" viewBox="0 0 512 512" fill="none" xmlns="http://www.w3.org/2000/svg">
<path d="M496.659 312.128L449.598 275.328C450.217 269.653 450.707 263.019 450.707 256C450.707 248.981 450.195 242.347 449.598 236.672L496.702 199.851C505.449 192.939 507.859 180.672 502.27 170.454L453.331 85.782C447.976 76.033 435.966 71.574 425.022 75.606L369.491 97.899C358.867 90.219 347.71 83.734 336.168 78.55L327.72 19.649C326.334 8.448 316.606 0 305.107 0H206.974C195.475 0 185.747 8.448 184.382 19.435L175.913 78.55C164.734 83.606 153.748 89.985 142.633 97.921L86.953 75.564C76.308 71.404 64.19 75.799 58.857 85.569L9.854 170.369C4.073 180.14 6.441 192.812 15.401 199.894L62.462 236.673C61.715 243.884 61.353 250.134 61.353 256.001C61.353 261.868 61.716 268.118 62.42 275.329L15.316 312.172C6.59 319.083 4.2 331.349 9.768 341.568L58.707 426.24C64.019 435.968 76.008 440.405 87.016 436.416L142.547 414.123C153.171 421.782 164.35 428.267 175.891 433.472L184.339 492.352C185.726 503.552 195.454 512 206.952 512H305.085C316.584 512 326.312 503.552 327.677 492.565L336.146 433.472C347.325 428.416 358.311 422.037 369.426 414.101L425.106 436.458C435.709 440.575 447.869 436.223 453.202 426.453L502.397 341.354C507.838 331.371 505.448 319.104 496.659 312.128ZM483.752 330.901L432.936 416.618L371.859 392.085C368.403 390.698 364.478 391.232 361.491 393.45C348.264 403.349 335.486 410.794 322.387 416.149C320.663 416.852 319.154 417.994 318.009 419.461C316.863 420.928 316.122 422.669 315.859 424.512L305.086 490.667L205.523 489.536L196.2 424.533C195.932 422.692 195.19 420.952 194.045 419.486C192.9 418.019 191.393 416.877 189.672 416.17C176.04 410.581 162.92 402.965 150.653 393.535C148.79 392.095 146.501 391.314 144.146 391.316C142.802 391.316 141.458 391.551 140.157 392.084L77.33 415.785L28.391 331.113C27.943 330.281 28.028 329.321 28.54 328.916L80.316 288.447C81.7668 287.309 82.8986 285.815 83.6014 284.111C84.3043 282.406 84.5542 280.549 84.327 278.719C83.196 269.78 82.684 262.548 82.684 255.999C82.684 249.45 83.217 242.239 84.327 233.279C84.5562 231.449 84.3072 229.591 83.6042 227.886C82.9012 226.181 81.7683 224.688 80.316 223.551L28.286 181.12L79.102 95.403L140.179 119.936C143.656 121.344 147.56 120.811 150.568 118.571C163.773 108.651 176.573 101.227 189.672 95.872C191.389 95.1627 192.892 94.0186 194.033 92.5523C195.174 91.0859 195.914 89.3478 196.179 87.509L206.974 21.333L306.558 22.485L315.859 87.509C316.127 89.35 316.869 91.0896 318.014 92.5561C319.159 94.0226 320.666 95.1654 322.387 95.872C335.998 101.44 349.118 109.056 361.406 118.507C364.414 120.811 368.361 121.366 371.881 119.936L434.708 96.235L483.647 180.907C484.095 181.739 484.01 182.678 483.498 183.083L431.722 223.552C430.27 224.689 429.137 226.182 428.434 227.887C427.731 229.592 427.482 231.45 427.711 233.28C428.522 239.765 429.354 247.552 429.354 256C429.354 264.469 428.522 272.235 427.711 278.72C427.484 280.55 427.734 282.407 428.437 284.112C429.139 285.816 430.271 287.31 431.722 288.448L483.434 328.896C483.987 329.344 484.094 330.304 483.752 330.901Z" fill="black"/>
<path d="M256.019 149.333C197.203 149.333 149.352 197.184 149.352 256C149.352 314.816 197.203 362.667 256.019 362.667C314.835 362.667 362.686 314.816 362.686 256C362.686 197.184 314.835 149.333 256.019 149.333ZM256.019 341.333C208.958 341.333 170.686 303.061 170.686 256C170.686 208.939 208.958 170.667 256.019 170.667C303.08 170.667 341.352 208.939 341.352 256C341.352 303.061 303.08 341.333 256.019 341.333Z" fill="black"/>
</svg>
